<?xml version="1.0" encoding="UTF-8" standalone="no"?>
<svg background-color="white" width="358px" height="572px" viewBox="0 0 358 572" version="1.1" xmlns="http://www.w3.org/2000/svg" xmlns:xlink="http://www.w3.org/1999/xlink" xmlns:sketch="http://www.bohemiancoding.com/sketch/ns">
    <!-- Generator: Sketch 3.3.3 (12072) - http://www.bohemiancoding.com/sketch -->
    <title>bond_big_gun</title>
    <desc>Created with Sketch.</desc>
    <defs></defs>
    <g id="Welcome" stroke="none" stroke-width="1" fill="none" fill-rule="evenodd" sketch:type="MSPage">
        <g id="Desktop" sketch:type="MSArtboardGroup" transform="translate(-829.000000, -196.000000)">
            <g id="Hero-Section" sketch:type="MSLayerGroup">
                <g transform="translate(0.000000, 100.000000)" id="bond_big_gun" sketch:type="MSShapeGroup">
                    <g transform="translate(829.000000, 96.000000)">
                        <g id="Layer_11" transform="translate(316.000000, 339.000000)" fill="transparent">
                            <path d="M1.1,0.9 C1.2,0.8 0.8,3.2 0.1,6.7 L36.7,25.2 C36.7,25.2 37.2,12 36.7,9.4 L1.4,0.6" id="Shape"></path>
                        </g>
                        <g id="Layer_2" transform="translate(77.000000, 135.000000)" fill="#FFFFFF">
                            <path d="M80.6,58.8 L93.6,48.9 L107.4,41.5 L118.015257,27.4447632 L119.6,22.2 L121.3,24.2 L154.1,0 L159.9,2.2 L177,11.8 L212.9,19.5 L230.1,20.5 L261.4,89.6 L261.4,97.3 L272.4,116.9 L278.1,152.9 L276.2,186.6 L280.4,224.3 L240.1,204.9 L241.4,162.9 L238.5,146.9 L223.1,119.9 L223.4,153.6 L231.5,178.3 L253.1,274.3 L94.1,293.6 L82.7,293.6 L94.3,218.7 L102.2,187.8 L102.9,176.9 L107.4,167.3 L101.9,146 L87.5,164.4 L77.4,170.4 L68,166.2 L61.7,169.3 L56.8,160.6 L0.4,124.3 L6.7,113.3 L31.1,89.9 L67.1,120.6 L70.1,105.6 L70.6,101 L75.1,98.6 L74.5,90.7 L79.4,74.9 L80.6,58.8 Z" id="Shape"></path>
                        </g>
                        <g id="Layer_3" transform="translate(75.000000, 218.000000)" fill="transparent">
                            <path d="M0.4,22.5 L0.4,25.5 L7.6,36.5 C7.6,36.5 29.8,13.5 30.6,13.3 C31.4,13.1 33,7 33,7 C33,7 26.8,0.1 26.6,0.8 C26.4,1.5 0.4,22.5 0.4,22.5 L0.4,22.5 Z" id="Shape"></path>
                        </g>
                        <g id="Layer_4" transform="translate(170.000000, 407.000000)" fill="#FFFFFF">
                            <path d="M0.6,19 L2.4,25 L1.5,39.2 L3.9,63 L2.3,68.8 L5.7,73.8 L3.2,82.8 L5.7,87.8 L5.7,100.3 L4.5,104.3 L5.7,108.3 L5.7,114.1 C5.7,114.1 9.2,119.3 9.2,120.1 C9.2,120.9 11,129.3 11,129.3 L31.5,177.1 L35.3,181.1 L39.8,207.3 L46.8,226.1 L45.3,238.9 L42.1,247.7 L39.9,260.9 L39.4,270.7 L70.9,270.7 C70.9,270.7 74.9,262.9 74.9,261.7 L74.9,251.7 L73.1,248.2 L74.9,220.2 L74.9,190.7 L74.9,170.5 L67.1,146.7 L63.1,128.9 L61.1,114.1 L57.1,104.1 L56.1,93.6 L58.6,81.6 L57.8,64.8 L74.8,36.3 C74.8,36.3 75.3,76.3 74.8,77.3 C74.3,78.3 76.6,136.3 76.6,136.3 L76.6,149.5 L76.6,168.3 C76.6,168.3 76.8,190.3 76.6,191.1 C76.4,191.9 75.6,232.6 75.6,233.6 C75.6,234.6 76.7,240.4 76.7,240.4 L76.7,246.6 L82.1,258.1 L82.1,270.6 L121.3,270.6 C121.3,270.6 122.5,259.6 122.5,258.6 C122.5,257.6 126.5,232.4 126.5,232.4 L126.5,225.9 L129.7,202.4 L128.2,148.6 L133.4,126.6 L128.2,114.1 L133.4,75.9 C133.4,75.9 139.6,24.7 139.9,23.9 C140.2,23.1 139.9,0.9 139.9,0.9 L0.6,0.9 L0.6,19 L0.6,19 Z" id="Shape"></path>
                        </g>
                        <g id="Layer_5" transform="translate(310.000000, 344.000000)" fill="#FFFFFF">
                            <path d="M5.5,5.2 C3.4,16.6 0,34.5 0,34.5 L2.6,60.5 L7.1,58.5 L7.1,70.3 L8.3,72.5 L12.1,72 L12.1,73.5 L14.3,75.3 L18.5,74.1 L20.3,75.3 L23.5,74.1 L28.5,67.6 L32,67.6 L37.2,54.8 L37.2,45.3 L35.7,25.1 C35.7,25.1 36.9,22.5 37.9,20.4 L40.1,15.5 L7.3,0.2 L5.5,5.2 L5.5,5.2 Z" id="Shape"></path>
                        </g>
                        <g id="Layer_6" transform="translate(70.000000, 185.000000)">
                            <path d="M170.4,30.5 L199.4,16.5 L199.4,21 L170.4,30.5 Z" id="Shape" fill="#000000"></path>
                            <path d="M16.4,51.6 L32.1,36.8 L32.1,27.3 L35.6,14 L26,0.3 L14.6,1.8 L12.6,4.3 L16.4,8.5 L21.7,9 L22.9,13.3 L10.1,37 L0.9,32 L5.4,41.8 L11.6,45.5 L16.4,51.6 Z" id="Shape" fill="transparent"></path>
                        </g>
                        <g id="Layer_7" transform="translate(64.000000, 186.000000)" fill="#000000">
                            <path d="M1.6,22.5 L0.1,15.5 L1.6,12.8 L3.4,12.8 L3.4,10.5 L5.6,6.3 L7.5,5.5 L7,3.2 L9.1,0.5 L14.4,0.5 L22.4,7.5 L25.4,11.5 L25.4,14.3 L22.4,15.5 L22.4,18 L20.6,20.3 L18.1,21 L16.1,19.8 L15.6,22.5 L12.8,22.5 L6.9,21.3 L1.6,22.5 Z" id="Shape"></path>
                        </g>
                        <g id="Layer_8" fill="#FFFFFF">
                            <path d="M79.7,224.1 C78.7,223.8 66.6,216.3 66.6,216.3 L64.1,211.6 L80.6,181.9 L86.6,193.1 L92.7,193.5 L93.9,198.5 L79.7,224.1 L79.7,224.1 Z" id="Shape"></path>
                            <path d="M96.4,191.1 L76.8,189.8 L65.4,170 L67.7,164.8 L60.5,152.8 L41,154.3 L12.2,150.1 L6.7,150.1 L7.9,134.1 L13.1,130.3 L16.3,133.8 L35.6,136.8 L58.3,136.6 C58.3,136.6 60.3,133.4 60.8,133.6 C61.3,133.8 65.6,133.3 65.6,133.3 L65.3,130 L64.9,121.6 L0,8.2 L14.3,0 L54.3,70 L53.7,73.4 L57,74.8 L61,73.3 L66.8,73.3 L72.1,72.4 L75,76.9 L70.8,80.6 L73.1,85.9 L71,87.1 L95.1,128.5 L97.6,127.9 L99.6,131.4 L99.1,133.3 L101.1,134.1 L101,136.7 L102.9,137.3 L102.7,139.8 L104.7,140.6 L104.5,143 L106.3,143.4 L106.3,146.1 L108.2,146.7 L108.1,149.3 L110.1,150.1 L109.9,152.6 L111.7,153.1 L111.7,155.8 L113.5,156.3 L113.4,158.9 L115.6,159.6 L120.7,168.6 L120.3,171.6 L123.6,177.9 L129.1,175.4 L132.1,180.7 L133.1,197.6 L134.8,202.4 L134.1,215.6 L135.8,222.4 L149,245.7 L147.8,256.5 C147.8,256.5 128.6,261.5 128.3,261 C128,260.5 120.8,239.2 120.8,239.2 L118.8,222.5 L115.8,218.8 L112.8,212.9 L108.8,212.7 L107.8,207.4 L101.3,200.7 L96.4,191.1 L96.4,191.1 Z M133.2,232.1 L127,235.9 L128.7,245.6 L134,250.6 L141.3,245.4 L133.2,232.1 L133.2,232.1 Z" id="Shape"></path>
                        </g>
                        <g id="Layer_9" transform="translate(192.000000, 135.000000)">
                            <path d="M4.6,22.2 C4.6,22.2 8.1,27.1 8.6,27.3 C8.9,27.4 12.2,28.7 14.1,29.4 C15,29.7 15.6,30 15.6,30 L34.8,11 L39.2,0.1 L45,2.2 C45,2.2 49.2,6.8 48.5,7.1 C47.8,7.4 20,104.3 20,104.3 L4.7,95 L0,70 L0,44 L4.5,35.8 L3,27.4 L4.6,22.2 L4.6,22.2 Z" id="Shape" fill="#000000"></path>
                            <path d="M1.2,99.6 C1.7,99.3 8.7,77.6 8.7,77.6 L8.7,51.3 L9.5,47 L8.2,35.7 L9.5,32 L14,29.4 L15.5,30 L24.1,36.2 L17,45.7 L21,55.7 L24.1,101.7 C24.1,101.7 22.8,107.4 22.3,107.5 C21.8,107.7 8.8,110.5 7.8,110.2 C6.9,109.8 1.2,99.6 1.2,99.6 L1.2,99.6 Z" id="Shape" fill="#FFFFFF"></path>
                        </g>
                        <g id="Layer_10" transform="translate(161.000000, 64.000000)" fill="#FFFFFF">
                            <path d="M3.4,16.4 C3.7,15.9 15.9,4.7 16.6,4.6 C17.3,4.4 34.4,0.4 34.4,0.4 C34.4,0.4 52.9,5.6 53.7,5.7 C54.5,5.9 68,30.7 68,30.7 L68.7,34.7 L71.2,35.4 L73.5,39.2 L72.2,45.4 L72,49.9 L69.7,55.9 L66.2,57.4 L73.5,74.7 L63,91 L43.6,105.2 L34.5,91.7 L33.7,89.9 L30.9,89.2 L21.4,81.7 L5.2,51.9 L1.9,46.1 L0.6,35.6 L3.4,16.4 L3.4,16.4 Z" id="Shape"></path>
                        </g>
                    </g>
                </g>
            </g>
        </g>
    </g>
</svg>
